<svg width="940" height="230" viewBox="0 0 940 230" fill="none" xmlns="http://www.w3.org/2000/svg" role="img" aria-label="Contribution Activity">
<defs><linearGradient id="fill" x1="0" y1="0" x2="0" y2="1"><stop offset="0%" stop-color="#88c0d0" stop-opacity="0.38"/><stop offset="100%" stop-color="#88c0d0" stop-opacity="0"/></linearGradient></defs>
<rect x="0.5" y="0.5" width="939" height="229" rx="8" fill="#2e3440" stroke="#ffffff" stroke-width="1"/>
<text x="44" y="30" fill="#88c0d0" font-family="Segoe UI, Ubuntu, Sans-Serif" font-size="18" font-weight="600">Contribution Activity</text>
<text x="918" y="30" text-anchor="end" fill="#81a1c1" font-family="Segoe UI, Ubuntu, Sans-Serif" font-size="13">73 contributions from Aug 13 to Sep 11</text>
<line x1="44" y1="196.0" x2="918" y2="196.0" stroke="#434c5e" stroke-width="1" stroke-dasharray="3 4"/>
<text x="36" y="200.0" text-anchor="end" fill="#81a1c1" font-family="Segoe UI, Ubuntu, Sans-Serif" font-size="11">0</text>
<line x1="44" y1="125.0" x2="918" y2="125.0" stroke="#434c5e" stroke-width="1" stroke-dasharray="3 4"/>
<text x="36" y="129.0" text-anchor="end" fill="#81a1c1" font-family="Segoe UI, Ubuntu, Sans-Serif" font-size="11">10</text>
<line x1="44" y1="54.0" x2="918" y2="54.0" stroke="#434c5e" stroke-width="1" stroke-dasharray="3 4"/>
<text x="36" y="58.0" text-anchor="end" fill="#81a1c1" font-family="Segoe UI, Ubuntu, Sans-Serif" font-size="11">20</text>
<path d="M 44.0 196.0 C 49.0 193.6, 64.1 183.0, 74.1 181.8 C 84.2 180.6, 94.2 188.9, 104.3 188.9 C 114.3 188.9, 124.4 181.8, 134.4 181.8 C 144.5 181.8, 154.5 187.7, 164.6 188.9 C 174.6 190.1, 184.6 193.6, 194.7 188.9 C 204.7 184.2, 214.8 160.5, 224.8 160.5 C 234.9 160.5, 244.9 183.0, 255.0 188.9 C 265.0 194.8, 275.1 196.0, 285.1 196.0 C 295.1 196.0, 305.2 188.9, 315.2 188.9 C 325.3 188.9, 335.3 196.0, 345.4 196.0 C 355.4 196.0, 365.5 188.9, 375.5 188.9 C 385.6 188.9, 395.6 194.8, 405.7 196.0 C 415.7 197.2, 425.7 197.2, 435.8 196.0 C 445.8 194.8, 455.9 190.1, 465.9 188.9 C 476.0 187.7, 486.0 209.0, 496.1 188.9 C 506.1 168.8, 516.2 69.4, 526.2 68.2 C 536.3 67.0, 546.3 162.9, 556.3 181.8 C 566.4 200.7, 576.4 179.4, 586.5 181.8 C 596.5 184.2, 606.6 193.6, 616.6 196.0 C 626.7 198.4, 636.7 203.1, 646.8 196.0 C 656.8 188.9, 666.9 157.0, 676.9 153.4 C 686.9 149.8, 697.0 178.2, 707.0 174.7 C 717.1 171.1, 727.1 135.6, 737.2 132.1 C 747.2 128.6, 757.3 143.9, 767.3 153.4 C 777.4 162.9, 787.4 181.8, 797.4 188.9 C 807.5 196.0, 817.5 200.7, 827.6 196.0 C 837.6 191.3, 847.7 165.2, 857.7 160.5 C 867.8 155.8, 877.8 161.7, 887.9 167.6 C 897.9 173.5, 913.0 191.3, 918.0 196.0 L 918.0 196.0 L 44.0 196.0 Z" fill="url(#fill)"/>
<path d="M 44.0 196.0 C 49.0 193.6, 64.1 183.0, 74.1 181.8 C 84.2 180.6, 94.2 188.9, 104.3 188.9 C 114.3 188.9, 124.4 181.8, 134.4 181.8 C 144.5 181.8, 154.5 187.7, 164.6 188.9 C 174.6 190.1, 184.6 193.6, 194.7 188.9 C 204.7 184.2, 214.8 160.5, 224.8 160.5 C 234.9 160.5, 244.9 183.0, 255.0 188.9 C 265.0 194.8, 275.1 196.0, 285.1 196.0 C 295.1 196.0, 305.2 188.9, 315.2 188.9 C 325.3 188.9, 335.3 196.0, 345.4 196.0 C 355.4 196.0, 365.5 188.9, 375.5 188.9 C 385.6 188.9, 395.6 194.8, 405.7 196.0 C 415.7 197.2, 425.7 197.2, 435.8 196.0 C 445.8 194.8, 455.9 190.1, 465.9 188.9 C 476.0 187.7, 486.0 209.0, 496.1 188.9 C 506.1 168.8, 516.2 69.4, 526.2 68.2 C 536.3 67.0, 546.3 162.9, 556.3 181.8 C 566.4 200.7, 576.4 179.4, 586.5 181.8 C 596.5 184.2, 606.6 193.6, 616.6 196.0 C 626.7 198.4, 636.7 203.1, 646.8 196.0 C 656.8 188.9, 666.9 157.0, 676.9 153.4 C 686.9 149.8, 697.0 178.2, 707.0 174.7 C 717.1 171.1, 727.1 135.6, 737.2 132.1 C 747.2 128.6, 757.3 143.9, 767.3 153.4 C 777.4 162.9, 787.4 181.8, 797.4 188.9 C 807.5 196.0, 817.5 200.7, 827.6 196.0 C 837.6 191.3, 847.7 165.2, 857.7 160.5 C 867.8 155.8, 877.8 161.7, 887.9 167.6 C 897.9 173.5, 913.0 191.3, 918.0 196.0" fill="none" stroke="#88c0d0" stroke-width="2.2" stroke-linecap="round" stroke-linejoin="round"/>
<circle cx="44.0" cy="196.0" r="2.6" fill="#2e3440" stroke="#88c0d0" stroke-width="1.6"/>
<text x="44.0" y="218" text-anchor="middle" fill="#81a1c1" font-family="Segoe UI, Ubuntu, Sans-Serif" font-size="10">13 Aug</text>
<circle cx="74.1" cy="181.8" r="2.6" fill="#2e3440" stroke="#88c0d0" stroke-width="1.6"/>
<circle cx="104.3" cy="188.9" r="2.6" fill="#2e3440" stroke="#88c0d0" stroke-width="1.6"/>
<circle cx="134.4" cy="181.8" r="2.6" fill="#2e3440" stroke="#88c0d0" stroke-width="1.6"/>
<text x="134.4" y="218" text-anchor="middle" fill="#81a1c1" font-family="Segoe UI, Ubuntu, Sans-Serif" font-size="10">16 Aug</text>
<circle cx="164.6" cy="188.9" r="2.6" fill="#2e3440" stroke="#88c0d0" stroke-width="1.6"/>
<circle cx="194.7" cy="188.9" r="2.6" fill="#2e3440" stroke="#88c0d0" stroke-width="1.6"/>
<circle cx="224.8" cy="160.5" r="2.6" fill="#2e3440" stroke="#88c0d0" stroke-width="1.6"/>
<text x="224.8" y="218" text-anchor="middle" fill="#81a1c1" font-family="Segoe UI, Ubuntu, Sans-Serif" font-size="10">19 Aug</text>
<circle cx="255.0" cy="188.9" r="2.6" fill="#2e3440" stroke="#88c0d0" stroke-width="1.6"/>
<circle cx="285.1" cy="196.0" r="2.6" fill="#2e3440" stroke="#88c0d0" stroke-width="1.6"/>
<circle cx="315.2" cy="188.9" r="2.6" fill="#2e3440" stroke="#88c0d0" stroke-width="1.6"/>
<text x="315.2" y="218" text-anchor="middle" fill="#81a1c1" font-family="Segoe UI, Ubuntu, Sans-Serif" font-size="10">22 Aug</text>
<circle cx="345.4" cy="196.0" r="2.6" fill="#2e3440" stroke="#88c0d0" stroke-width="1.6"/>
<circle cx="375.5" cy="188.9" r="2.6" fill="#2e3440" stroke="#88c0d0" stroke-width="1.6"/>
<circle cx="405.7" cy="196.0" r="2.6" fill="#2e3440" stroke="#88c0d0" stroke-width="1.6"/>
<text x="405.7" y="218" text-anchor="middle" fill="#81a1c1" font-family="Segoe UI, Ubuntu, Sans-Serif" font-size="10">25 Aug</text>
<circle cx="435.8" cy="196.0" r="2.6" fill="#2e3440" stroke="#88c0d0" stroke-width="1.6"/>
<circle cx="465.9" cy="188.9" r="2.6" fill="#2e3440" stroke="#88c0d0" stroke-width="1.6"/>
<circle cx="496.1" cy="188.9" r="2.6" fill="#2e3440" stroke="#88c0d0" stroke-width="1.6"/>
<text x="496.1" y="218" text-anchor="middle" fill="#81a1c1" font-family="Segoe UI, Ubuntu, Sans-Serif" font-size="10">28 Aug</text>
<circle cx="526.2" cy="68.2" r="2.6" fill="#2e3440" stroke="#88c0d0" stroke-width="1.6"/>
<circle cx="556.3" cy="181.8" r="2.6" fill="#2e3440" stroke="#88c0d0" stroke-width="1.6"/>
<circle cx="586.5" cy="181.8" r="2.6" fill="#2e3440" stroke="#88c0d0" stroke-width="1.6"/>
<text x="586.5" y="218" text-anchor="middle" fill="#81a1c1" font-family="Segoe UI, Ubuntu, Sans-Serif" font-size="10">31 Aug</text>
<circle cx="616.6" cy="196.0" r="2.6" fill="#2e3440" stroke="#88c0d0" stroke-width="1.6"/>
<circle cx="646.8" cy="196.0" r="2.6" fill="#2e3440" stroke="#88c0d0" stroke-width="1.6"/>
<circle cx="676.9" cy="153.4" r="2.6" fill="#2e3440" stroke="#88c0d0" stroke-width="1.6"/>
<text x="676.9" y="218" text-anchor="middle" fill="#81a1c1" font-family="Segoe UI, Ubuntu, Sans-Serif" font-size="10">3 Sep</text>
<circle cx="707.0" cy="174.7" r="2.6" fill="#2e3440" stroke="#88c0d0" stroke-width="1.6"/>
<circle cx="737.2" cy="132.1" r="2.6" fill="#2e3440" stroke="#88c0d0" stroke-width="1.6"/>
<circle cx="767.3" cy="153.4" r="2.6" fill="#2e3440" stroke="#88c0d0" stroke-width="1.6"/>
<text x="767.3" y="218" text-anchor="middle" fill="#81a1c1" font-family="Segoe UI, Ubuntu, Sans-Serif" font-size="10">6 Sep</text>
<circle cx="797.4" cy="188.9" r="2.6" fill="#2e3440" stroke="#88c0d0" stroke-width="1.6"/>
<circle cx="827.6" cy="196.0" r="2.6" fill="#2e3440" stroke="#88c0d0" stroke-width="1.6"/>
<circle cx="857.7" cy="160.5" r="2.6" fill="#2e3440" stroke="#88c0d0" stroke-width="1.6"/>
<text x="857.7" y="218" text-anchor="middle" fill="#81a1c1" font-family="Segoe UI, Ubuntu, Sans-Serif" font-size="10">9 Sep</text>
<circle cx="887.9" cy="167.6" r="2.6" fill="#2e3440" stroke="#88c0d0" stroke-width="1.6"/>
<circle cx="918.0" cy="196.0" r="2.6" fill="#2e3440" stroke="#88c0d0" stroke-width="1.6"/>
<text x="918.0" y="218" text-anchor="middle" fill="#81a1c1" font-family="Segoe UI, Ubuntu, Sans-Serif" font-size="10">11 Sep</text>
<circle cx="526.2" cy="68.2" r="4" fill="#2e3440" stroke="#88c0d0" stroke-width="2"/>
<text x="526.2" y="58.2" text-anchor="middle" fill="#d8dee9" font-family="Segoe UI, Ubuntu, Sans-Serif" font-size="11" font-weight="600">18</text>
</svg>