<svg width="940" height="230" viewBox="0 0 940 230" fill="none" xmlns="http://www.w3.org/2000/svg" role="img" aria-label="Contribution activity">
<defs><linearGradient id="fill" x1="0" y1="0" x2="0" y2="1"><stop offset="0%" stop-color="#88c0d0" stop-opacity="0.38"/><stop offset="100%" stop-color="#88c0d0" stop-opacity="0"/></linearGradient></defs>
<rect width="940" height="230" rx="8" fill="#2e3440"/>
<text x="44" y="30" fill="#88c0d0" font-family="Segoe UI, Ubuntu, Sans-Serif" font-size="18" font-weight="600">Contribution Activity</text>
<text x="918" y="30" text-anchor="end" fill="#81a1c1" font-family="Segoe UI, Ubuntu, Sans-Serif" font-size="13">280 contributions in the last year</text>
<line x1="44" y1="196.0" x2="918" y2="196.0" stroke="#434c5e" stroke-width="1" stroke-dasharray="3 4"/>
<text x="36" y="200.0" text-anchor="end" fill="#81a1c1" font-family="Segoe UI, Ubuntu, Sans-Serif" font-size="11">0</text>
<line x1="44" y1="125.0" x2="918" y2="125.0" stroke="#434c5e" stroke-width="1" stroke-dasharray="3 4"/>
<text x="36" y="129.0" text-anchor="end" fill="#81a1c1" font-family="Segoe UI, Ubuntu, Sans-Serif" font-size="11">8</text>
<line x1="44" y1="54.0" x2="918" y2="54.0" stroke="#434c5e" stroke-width="1" stroke-dasharray="3 4"/>
<text x="36" y="58.0" text-anchor="end" fill="#81a1c1" font-family="Segoe UI, Ubuntu, Sans-Serif" font-size="11">15</text>
<path d="M 44.0 196.0 C 46.9 186.5, 55.4 153.4, 61.1 139.2 C 66.8 125.0, 72.6 114.0, 78.3 110.8 C 84.0 107.6, 89.7 114.0, 95.4 120.3 C 101.1 126.6, 106.8 145.5, 112.5 148.7 C 118.3 151.8, 124.0 136.0, 129.7 139.2 C 135.4 142.4, 141.1 172.3, 146.8 167.6 C 152.5 162.9, 158.2 123.4, 164.0 110.8 C 169.7 98.2, 175.4 85.6, 181.1 91.9 C 186.8 98.2, 192.5 136.0, 198.2 148.7 C 203.9 161.3, 209.7 161.3, 215.4 167.6 C 221.1 173.9, 226.8 183.4, 232.5 186.5 C 238.2 189.7, 243.9 186.5, 249.6 186.5 C 255.4 186.5, 261.1 186.5, 266.8 186.5 C 272.5 186.5, 278.2 185.0, 283.9 186.5 C 289.6 188.1, 295.3 200.7, 301.1 196.0 C 306.8 191.3, 312.5 170.8, 318.2 158.1 C 323.9 145.5, 329.6 131.3, 335.3 120.3 C 341.0 109.2, 346.8 96.6, 352.5 91.9 C 358.2 87.1, 363.9 90.3, 369.6 91.9 C 375.3 93.4, 381.0 104.5, 386.7 101.3 C 392.5 98.2, 398.2 69.8, 403.9 72.9 C 409.6 76.1, 415.3 109.2, 421.0 120.3 C 426.7 131.3, 432.4 136.0, 438.2 139.2 C 443.9 142.4, 449.6 132.9, 455.3 139.2 C 461.0 145.5, 466.7 178.6, 472.4 177.1 C 478.1 175.5, 483.9 136.0, 489.6 129.7 C 495.3 123.4, 501.0 139.2, 506.7 139.2 C 512.4 139.2, 518.1 128.2, 523.8 129.7 C 529.6 131.3, 535.3 147.1, 541.0 148.7 C 546.7 150.2, 552.4 142.4, 558.1 139.2 C 563.8 136.0, 569.5 131.3, 575.3 129.7 C 581.0 128.2, 586.7 126.6, 592.4 129.7 C 598.1 132.9, 603.8 143.9, 609.5 148.7 C 615.2 153.4, 621.0 158.1, 626.7 158.1 C 632.4 158.1, 638.1 153.4, 643.8 148.7 C 649.5 143.9, 655.2 123.4, 660.9 129.7 C 666.7 136.0, 672.4 186.5, 678.1 186.5 C 683.8 186.5, 689.5 136.0, 695.2 129.7 C 700.9 123.4, 706.6 139.2, 712.4 148.7 C 718.1 158.1, 723.8 188.1, 729.5 186.5 C 735.2 185.0, 740.9 140.8, 746.6 139.2 C 752.3 137.6, 758.1 178.6, 763.8 177.1 C 769.5 175.5, 775.2 139.2, 780.9 129.7 C 786.6 120.3, 792.3 115.5, 798.0 120.3 C 803.8 125.0, 809.5 145.5, 815.2 158.1 C 820.9 170.8, 826.6 194.4, 832.3 196.0 C 838.0 197.6, 843.7 172.3, 849.5 167.6 C 855.2 162.9, 860.9 173.9, 866.6 167.6 C 872.3 161.3, 878.0 134.5, 883.7 129.7 C 889.4 125.0, 895.2 137.6, 900.9 139.2 C 906.6 140.8, 915.1 139.2, 918.0 139.2 L 918.0 196.0 L 44.0 196.0 Z" fill="url(#fill)"/>
<path d="M 44.0 196.0 C 46.9 186.5, 55.4 153.4, 61.1 139.2 C 66.8 125.0, 72.6 114.0, 78.3 110.8 C 84.0 107.6, 89.7 114.0, 95.4 120.3 C 101.1 126.6, 106.8 145.5, 112.5 148.7 C 118.3 151.8, 124.0 136.0, 129.7 139.2 C 135.4 142.4, 141.1 172.3, 146.8 167.6 C 152.5 162.9, 158.2 123.4, 164.0 110.8 C 169.7 98.2, 175.4 85.6, 181.1 91.9 C 186.8 98.2, 192.5 136.0, 198.2 148.7 C 203.9 161.3, 209.7 161.3, 215.4 167.6 C 221.1 173.9, 226.8 183.4, 232.5 186.5 C 238.2 189.7, 243.9 186.5, 249.6 186.5 C 255.4 186.5, 261.1 186.5, 266.8 186.5 C 272.5 186.5, 278.2 185.0, 283.9 186.5 C 289.6 188.1, 295.3 200.7, 301.1 196.0 C 306.8 191.3, 312.5 170.8, 318.2 158.1 C 323.9 145.5, 329.6 131.3, 335.3 120.3 C 341.0 109.2, 346.8 96.6, 352.5 91.9 C 358.2 87.1, 363.9 90.3, 369.6 91.9 C 375.3 93.4, 381.0 104.5, 386.7 101.3 C 392.5 98.2, 398.2 69.8, 403.9 72.9 C 409.6 76.1, 415.3 109.2, 421.0 120.3 C 426.7 131.3, 432.4 136.0, 438.2 139.2 C 443.9 142.4, 449.6 132.9, 455.3 139.2 C 461.0 145.5, 466.7 178.6, 472.4 177.1 C 478.1 175.5, 483.9 136.0, 489.6 129.7 C 495.3 123.4, 501.0 139.2, 506.7 139.2 C 512.4 139.2, 518.1 128.2, 523.8 129.7 C 529.6 131.3, 535.3 147.1, 541.0 148.7 C 546.7 150.2, 552.4 142.4, 558.1 139.2 C 563.8 136.0, 569.5 131.3, 575.3 129.7 C 581.0 128.2, 586.7 126.6, 592.4 129.7 C 598.1 132.9, 603.8 143.9, 609.5 148.7 C 615.2 153.4, 621.0 158.1, 626.7 158.1 C 632.4 158.1, 638.1 153.4, 643.8 148.7 C 649.5 143.9, 655.2 123.4, 660.9 129.7 C 666.7 136.0, 672.4 186.5, 678.1 186.5 C 683.8 186.5, 689.5 136.0, 695.2 129.7 C 700.9 123.4, 706.6 139.2, 712.4 148.7 C 718.1 158.1, 723.8 188.1, 729.5 186.5 C 735.2 185.0, 740.9 140.8, 746.6 139.2 C 752.3 137.6, 758.1 178.6, 763.8 177.1 C 769.5 175.5, 775.2 139.2, 780.9 129.7 C 786.6 120.3, 792.3 115.5, 798.0 120.3 C 803.8 125.0, 809.5 145.5, 815.2 158.1 C 820.9 170.8, 826.6 194.4, 832.3 196.0 C 838.0 197.6, 843.7 172.3, 849.5 167.6 C 855.2 162.9, 860.9 173.9, 866.6 167.6 C 872.3 161.3, 878.0 134.5, 883.7 129.7 C 889.4 125.0, 895.2 137.6, 900.9 139.2 C 906.6 140.8, 915.1 139.2, 918.0 139.2" fill="none" stroke="#88c0d0" stroke-width="2.2" stroke-linecap="round" stroke-linejoin="round"/>
<circle cx="403.9" cy="72.9" r="3.5" fill="#2e3440" stroke="#88c0d0" stroke-width="2"/>
<text x="403.9" y="62.9" text-anchor="middle" fill="#d8dee9" font-family="Segoe UI, Ubuntu, Sans-Serif" font-size="11" font-weight="600">13</text>
<text x="44.0" y="218" text-anchor="middle" fill="#81a1c1" font-family="Segoe UI, Ubuntu, Sans-Serif" font-size="11">Aug</text>
<text x="146.8" y="218" text-anchor="middle" fill="#81a1c1" font-family="Segoe UI, Ubuntu, Sans-Serif" font-size="11">Oct</text>
<text x="215.4" y="218" text-anchor="middle" fill="#81a1c1" font-family="Segoe UI, Ubuntu, Sans-Serif" font-size="11">Nov</text>
<text x="283.9" y="218" text-anchor="middle" fill="#81a1c1" font-family="Segoe UI, Ubuntu, Sans-Serif" font-size="11">Dec</text>
<text x="369.6" y="218" text-anchor="middle" fill="#81a1c1" font-family="Segoe UI, Ubuntu, Sans-Serif" font-size="11">Jan</text>
<text x="438.2" y="218" text-anchor="middle" fill="#81a1c1" font-family="Segoe UI, Ubuntu, Sans-Serif" font-size="11">Feb</text>
<text x="506.7" y="218" text-anchor="middle" fill="#81a1c1" font-family="Segoe UI, Ubuntu, Sans-Serif" font-size="11">Mar</text>
<text x="592.4" y="218" text-anchor="middle" fill="#81a1c1" font-family="Segoe UI, Ubuntu, Sans-Serif" font-size="11">Apr</text>
<text x="660.9" y="218" text-anchor="middle" fill="#81a1c1" font-family="Segoe UI, Ubuntu, Sans-Serif" font-size="11">May</text>
<text x="729.5" y="218" text-anchor="middle" fill="#81a1c1" font-family="Segoe UI, Ubuntu, Sans-Serif" font-size="11">Jun</text>
<text x="815.2" y="218" text-anchor="middle" fill="#81a1c1" font-family="Segoe UI, Ubuntu, Sans-Serif" font-size="11">Jul</text>
<text x="883.7" y="218" text-anchor="middle" fill="#81a1c1" font-family="Segoe UI, Ubuntu, Sans-Serif" font-size="11">Aug</text>
</svg>