<svg width="940" height="230" viewBox="0 0 940 230" fill="none" xmlns="http://www.w3.org/2000/svg" role="img" aria-label="Contribution Activity">
<defs><linearGradient id="fill" x1="0" y1="0" x2="0" y2="1"><stop offset="0%" stop-color="#88c0d0" stop-opacity="0.38"/><stop offset="100%" stop-color="#88c0d0" stop-opacity="0"/></linearGradient></defs>
<rect x="0.5" y="0.5" width="939" height="229" rx="8" fill="#2e3440" stroke="#ffffff" stroke-width="1"/>
<text x="44" y="30" fill="#88c0d0" font-family="Segoe UI, Ubuntu, Sans-Serif" font-size="18" font-weight="600">Contribution Activity</text>
<text x="918" y="30" text-anchor="end" fill="#81a1c1" font-family="Segoe UI, Ubuntu, Sans-Serif" font-size="13">71 contributions from Aug 11 to Sep 9</text>
<line x1="44" y1="196.0" x2="918" y2="196.0" stroke="#434c5e" stroke-width="1" stroke-dasharray="3 4"/>
<text x="36" y="200.0" text-anchor="end" fill="#81a1c1" font-family="Segoe UI, Ubuntu, Sans-Serif" font-size="11">0</text>
<line x1="44" y1="125.0" x2="918" y2="125.0" stroke="#434c5e" stroke-width="1" stroke-dasharray="3 4"/>
<text x="36" y="129.0" text-anchor="end" fill="#81a1c1" font-family="Segoe UI, Ubuntu, Sans-Serif" font-size="11">10</text>
<line x1="44" y1="54.0" x2="918" y2="54.0" stroke="#434c5e" stroke-width="1" stroke-dasharray="3 4"/>
<text x="36" y="58.0" text-anchor="end" fill="#81a1c1" font-family="Segoe UI, Ubuntu, Sans-Serif" font-size="11">20</text>
<path d="M 44.0 188.9 C 49.0 186.5, 64.1 173.5, 74.1 174.7 C 84.2 175.9, 94.2 194.8, 104.3 196.0 C 114.3 197.2, 124.4 183.0, 134.4 181.8 C 144.5 180.6, 154.5 188.9, 164.6 188.9 C 174.6 188.9, 184.6 181.8, 194.7 181.8 C 204.7 181.8, 214.8 187.7, 224.8 188.9 C 234.9 190.1, 244.9 193.6, 255.0 188.9 C 265.0 184.2, 275.1 160.5, 285.1 160.5 C 295.1 160.5, 305.2 183.0, 315.2 188.9 C 325.3 194.8, 335.3 196.0, 345.4 196.0 C 355.4 196.0, 365.5 188.9, 375.5 188.9 C 385.6 188.9, 395.6 196.0, 405.7 196.0 C 415.7 196.0, 425.7 188.9, 435.8 188.9 C 445.8 188.9, 455.9 194.8, 465.9 196.0 C 476.0 197.2, 486.0 197.2, 496.1 196.0 C 506.1 194.8, 516.2 190.1, 526.2 188.9 C 536.3 187.7, 546.3 209.0, 556.3 188.9 C 566.4 168.8, 576.4 69.4, 586.5 68.2 C 596.5 67.0, 606.6 162.9, 616.6 181.8 C 626.7 200.7, 636.7 179.4, 646.8 181.8 C 656.8 184.2, 666.9 193.6, 676.9 196.0 C 686.9 198.4, 697.0 203.1, 707.0 196.0 C 717.1 188.9, 727.1 157.0, 737.2 153.4 C 747.2 149.8, 757.3 178.2, 767.3 174.7 C 777.4 171.1, 787.4 135.6, 797.4 132.1 C 807.5 128.6, 817.5 143.9, 827.6 153.4 C 837.6 162.9, 847.7 181.8, 857.7 188.9 C 867.8 196.0, 877.8 198.4, 887.9 196.0 C 897.9 193.6, 913.0 178.2, 918.0 174.7 L 918.0 196.0 L 44.0 196.0 Z" fill="url(#fill)"/>
<path d="M 44.0 188.9 C 49.0 186.5, 64.1 173.5, 74.1 174.7 C 84.2 175.9, 94.2 194.8, 104.3 196.0 C 114.3 197.2, 124.4 183.0, 134.4 181.8 C 144.5 180.6, 154.5 188.9, 164.6 188.9 C 174.6 188.9, 184.6 181.8, 194.7 181.8 C 204.7 181.8, 214.8 187.7, 224.8 188.9 C 234.9 190.1, 244.9 193.6, 255.0 188.9 C 265.0 184.2, 275.1 160.5, 285.1 160.5 C 295.1 160.5, 305.2 183.0, 315.2 188.9 C 325.3 194.8, 335.3 196.0, 345.4 196.0 C 355.4 196.0, 365.5 188.9, 375.5 188.9 C 385.6 188.9, 395.6 196.0, 405.7 196.0 C 415.7 196.0, 425.7 188.9, 435.8 188.9 C 445.8 188.9, 455.9 194.8, 465.9 196.0 C 476.0 197.2, 486.0 197.2, 496.1 196.0 C 506.1 194.8, 516.2 190.1, 526.2 188.9 C 536.3 187.7, 546.3 209.0, 556.3 188.9 C 566.4 168.8, 576.4 69.4, 586.5 68.2 C 596.5 67.0, 606.6 162.9, 616.6 181.8 C 626.7 200.7, 636.7 179.4, 646.8 181.8 C 656.8 184.2, 666.9 193.6, 676.9 196.0 C 686.9 198.4, 697.0 203.1, 707.0 196.0 C 717.1 188.9, 727.1 157.0, 737.2 153.4 C 747.2 149.8, 757.3 178.2, 767.3 174.7 C 777.4 171.1, 787.4 135.6, 797.4 132.1 C 807.5 128.6, 817.5 143.9, 827.6 153.4 C 837.6 162.9, 847.7 181.8, 857.7 188.9 C 867.8 196.0, 877.8 198.4, 887.9 196.0 C 897.9 193.6, 913.0 178.2, 918.0 174.7" fill="none" stroke="#88c0d0" stroke-width="2.2" stroke-linecap="round" stroke-linejoin="round"/>
<circle cx="44.0" cy="188.9" r="2.6" fill="#2e3440" stroke="#88c0d0" stroke-width="1.6"/>
<text x="44.0" y="218" text-anchor="middle" fill="#81a1c1" font-family="Segoe UI, Ubuntu, Sans-Serif" font-size="10">11 Aug</text>
<circle cx="74.1" cy="174.7" r="2.6" fill="#2e3440" stroke="#88c0d0" stroke-width="1.6"/>
<circle cx="104.3" cy="196.0" r="2.6" fill="#2e3440" stroke="#88c0d0" stroke-width="1.6"/>
<circle cx="134.4" cy="181.8" r="2.6" fill="#2e3440" stroke="#88c0d0" stroke-width="1.6"/>
<text x="134.4" y="218" text-anchor="middle" fill="#81a1c1" font-family="Segoe UI, Ubuntu, Sans-Serif" font-size="10">14 Aug</text>
<circle cx="164.6" cy="188.9" r="2.6" fill="#2e3440" stroke="#88c0d0" stroke-width="1.6"/>
<circle cx="194.7" cy="181.8" r="2.6" fill="#2e3440" stroke="#88c0d0" stroke-width="1.6"/>
<circle cx="224.8" cy="188.9" r="2.6" fill="#2e3440" stroke="#88c0d0" stroke-width="1.6"/>
<text x="224.8" y="218" text-anchor="middle" fill="#81a1c1" font-family="Segoe UI, Ubuntu, Sans-Serif" font-size="10">17 Aug</text>
<circle cx="255.0" cy="188.9" r="2.6" fill="#2e3440" stroke="#88c0d0" stroke-width="1.6"/>
<circle cx="285.1" cy="160.5" r="2.6" fill="#2e3440" stroke="#88c0d0" stroke-width="1.6"/>
<circle cx="315.2" cy="188.9" r="2.6" fill="#2e3440" stroke="#88c0d0" stroke-width="1.6"/>
<text x="315.2" y="218" text-anchor="middle" fill="#81a1c1" font-family="Segoe UI, Ubuntu, Sans-Serif" font-size="10">20 Aug</text>
<circle cx="345.4" cy="196.0" r="2.6" fill="#2e3440" stroke="#88c0d0" stroke-width="1.6"/>
<circle cx="375.5" cy="188.9" r="2.6" fill="#2e3440" stroke="#88c0d0" stroke-width="1.6"/>
<circle cx="405.7" cy="196.0" r="2.6" fill="#2e3440" stroke="#88c0d0" stroke-width="1.6"/>
<text x="405.7" y="218" text-anchor="middle" fill="#81a1c1" font-family="Segoe UI, Ubuntu, Sans-Serif" font-size="10">23 Aug</text>
<circle cx="435.8" cy="188.9" r="2.6" fill="#2e3440" stroke="#88c0d0" stroke-width="1.6"/>
<circle cx="465.9" cy="196.0" r="2.6" fill="#2e3440" stroke="#88c0d0" stroke-width="1.6"/>
<circle cx="496.1" cy="196.0" r="2.6" fill="#2e3440" stroke="#88c0d0" stroke-width="1.6"/>
<text x="496.1" y="218" text-anchor="middle" fill="#81a1c1" font-family="Segoe UI, Ubuntu, Sans-Serif" font-size="10">26 Aug</text>
<circle cx="526.2" cy="188.9" r="2.6" fill="#2e3440" stroke="#88c0d0" stroke-width="1.6"/>
<circle cx="556.3" cy="188.9" r="2.6" fill="#2e3440" stroke="#88c0d0" stroke-width="1.6"/>
<circle cx="586.5" cy="68.2" r="2.6" fill="#2e3440" stroke="#88c0d0" stroke-width="1.6"/>
<text x="586.5" y="218" text-anchor="middle" fill="#81a1c1" font-family="Segoe UI, Ubuntu, Sans-Serif" font-size="10">29 Aug</text>
<circle cx="616.6" cy="181.8" r="2.6" fill="#2e3440" stroke="#88c0d0" stroke-width="1.6"/>
<circle cx="646.8" cy="181.8" r="2.6" fill="#2e3440" stroke="#88c0d0" stroke-width="1.6"/>
<circle cx="676.9" cy="196.0" r="2.6" fill="#2e3440" stroke="#88c0d0" stroke-width="1.6"/>
<text x="676.9" y="218" text-anchor="middle" fill="#81a1c1" font-family="Segoe UI, Ubuntu, Sans-Serif" font-size="10">1 Sep</text>
<circle cx="707.0" cy="196.0" r="2.6" fill="#2e3440" stroke="#88c0d0" stroke-width="1.6"/>
<circle cx="737.2" cy="153.4" r="2.6" fill="#2e3440" stroke="#88c0d0" stroke-width="1.6"/>
<circle cx="767.3" cy="174.7" r="2.6" fill="#2e3440" stroke="#88c0d0" stroke-width="1.6"/>
<text x="767.3" y="218" text-anchor="middle" fill="#81a1c1" font-family="Segoe UI, Ubuntu, Sans-Serif" font-size="10">4 Sep</text>
<circle cx="797.4" cy="132.1" r="2.6" fill="#2e3440" stroke="#88c0d0" stroke-width="1.6"/>
<circle cx="827.6" cy="153.4" r="2.6" fill="#2e3440" stroke="#88c0d0" stroke-width="1.6"/>
<circle cx="857.7" cy="188.9" r="2.6" fill="#2e3440" stroke="#88c0d0" stroke-width="1.6"/>
<text x="857.7" y="218" text-anchor="middle" fill="#81a1c1" font-family="Segoe UI, Ubuntu, Sans-Serif" font-size="10">7 Sep</text>
<circle cx="887.9" cy="196.0" r="2.6" fill="#2e3440" stroke="#88c0d0" stroke-width="1.6"/>
<circle cx="918.0" cy="174.7" r="2.6" fill="#2e3440" stroke="#88c0d0" stroke-width="1.6"/>
<text x="918.0" y="218" text-anchor="middle" fill="#81a1c1" font-family="Segoe UI, Ubuntu, Sans-Serif" font-size="10">9 Sep</text>
<circle cx="586.5" cy="68.2" r="4" fill="#2e3440" stroke="#88c0d0" stroke-width="2"/>
<text x="586.5" y="58.2" text-anchor="middle" fill="#d8dee9" font-family="Segoe UI, Ubuntu, Sans-Serif" font-size="11" font-weight="600">18</text>
</svg>