<svg width="940" height="230" viewBox="0 0 940 230" fill="none" xmlns="http://www.w3.org/2000/svg" role="img" aria-label="Contribution Activity">
<defs><linearGradient id="fill" x1="0" y1="0" x2="0" y2="1"><stop offset="0%" stop-color="#88c0d0" stop-opacity="0.38"/><stop offset="100%" stop-color="#88c0d0" stop-opacity="0"/></linearGradient></defs>
<rect x="0.5" y="0.5" width="939" height="229" rx="8" fill="#2e3440" stroke="#ffffff" stroke-width="1"/>
<text x="44" y="30" fill="#88c0d0" font-family="Segoe UI, Ubuntu, Sans-Serif" font-size="18" font-weight="600">Contribution Activity</text>
<text x="918" y="30" text-anchor="end" fill="#81a1c1" font-family="Segoe UI, Ubuntu, Sans-Serif" font-size="13">59 contributions from Aug 2 to Aug 31</text>
<line x1="44" y1="196.0" x2="918" y2="196.0" stroke="#434c5e" stroke-width="1" stroke-dasharray="3 4"/>
<text x="36" y="200.0" text-anchor="end" fill="#81a1c1" font-family="Segoe UI, Ubuntu, Sans-Serif" font-size="11">0</text>
<line x1="44" y1="125.0" x2="918" y2="125.0" stroke="#434c5e" stroke-width="1" stroke-dasharray="3 4"/>
<text x="36" y="129.0" text-anchor="end" fill="#81a1c1" font-family="Segoe UI, Ubuntu, Sans-Serif" font-size="11">10</text>
<line x1="44" y1="54.0" x2="918" y2="54.0" stroke="#434c5e" stroke-width="1" stroke-dasharray="3 4"/>
<text x="36" y="58.0" text-anchor="end" fill="#81a1c1" font-family="Segoe UI, Ubuntu, Sans-Serif" font-size="11">20</text>
<path d="M 44.0 196.0 C 49.0 196.0, 64.1 196.0, 74.1 196.0 C 84.2 196.0, 94.2 197.2, 104.3 196.0 C 114.3 194.8, 124.4 191.3, 134.4 188.9 C 144.5 186.5, 154.5 188.9, 164.6 181.8 C 174.6 174.7, 184.6 149.9, 194.7 146.3 C 204.7 142.8, 214.8 152.2, 224.8 160.5 C 234.9 168.8, 244.9 191.3, 255.0 196.0 C 265.0 200.7, 275.1 190.1, 285.1 188.9 C 295.1 187.7, 305.2 191.3, 315.2 188.9 C 325.3 186.5, 335.3 173.5, 345.4 174.7 C 355.4 175.9, 365.5 194.8, 375.5 196.0 C 385.6 197.2, 395.6 183.0, 405.7 181.8 C 415.7 180.6, 425.7 188.9, 435.8 188.9 C 445.8 188.9, 455.9 181.8, 465.9 181.8 C 476.0 181.8, 486.0 187.7, 496.1 188.9 C 506.1 190.1, 516.2 193.6, 526.2 188.9 C 536.3 184.2, 546.3 160.5, 556.3 160.5 C 566.4 160.5, 576.4 183.0, 586.5 188.9 C 596.5 194.8, 606.6 196.0, 616.6 196.0 C 626.7 196.0, 636.7 188.9, 646.8 188.9 C 656.8 188.9, 666.9 196.0, 676.9 196.0 C 686.9 196.0, 697.0 188.9, 707.0 188.9 C 717.1 188.9, 727.1 194.8, 737.2 196.0 C 747.2 197.2, 757.3 197.2, 767.3 196.0 C 777.4 194.8, 787.4 190.1, 797.4 188.9 C 807.5 187.7, 817.5 209.0, 827.6 188.9 C 837.6 168.8, 847.7 69.4, 857.7 68.2 C 867.8 67.0, 877.8 162.9, 887.9 181.8 C 897.9 200.7, 913.0 181.8, 918.0 181.8 L 918.0 196.0 L 44.0 196.0 Z" fill="url(#fill)"/>
<path d="M 44.0 196.0 C 49.0 196.0, 64.1 196.0, 74.1 196.0 C 84.2 196.0, 94.2 197.2, 104.3 196.0 C 114.3 194.8, 124.4 191.3, 134.4 188.9 C 144.5 186.5, 154.5 188.9, 164.6 181.8 C 174.6 174.7, 184.6 149.9, 194.7 146.3 C 204.7 142.8, 214.8 152.2, 224.8 160.5 C 234.9 168.8, 244.9 191.3, 255.0 196.0 C 265.0 200.7, 275.1 190.1, 285.1 188.9 C 295.1 187.7, 305.2 191.3, 315.2 188.9 C 325.3 186.5, 335.3 173.5, 345.4 174.7 C 355.4 175.9, 365.5 194.8, 375.5 196.0 C 385.6 197.2, 395.6 183.0, 405.7 181.8 C 415.7 180.6, 425.7 188.9, 435.8 188.9 C 445.8 188.9, 455.9 181.8, 465.9 181.8 C 476.0 181.8, 486.0 187.7, 496.1 188.9 C 506.1 190.1, 516.2 193.6, 526.2 188.9 C 536.3 184.2, 546.3 160.5, 556.3 160.5 C 566.4 160.5, 576.4 183.0, 586.5 188.9 C 596.5 194.8, 606.6 196.0, 616.6 196.0 C 626.7 196.0, 636.7 188.9, 646.8 188.9 C 656.8 188.9, 666.9 196.0, 676.9 196.0 C 686.9 196.0, 697.0 188.9, 707.0 188.9 C 717.1 188.9, 727.1 194.8, 737.2 196.0 C 747.2 197.2, 757.3 197.2, 767.3 196.0 C 777.4 194.8, 787.4 190.1, 797.4 188.9 C 807.5 187.7, 817.5 209.0, 827.6 188.9 C 837.6 168.8, 847.7 69.4, 857.7 68.2 C 867.8 67.0, 877.8 162.9, 887.9 181.8 C 897.9 200.7, 913.0 181.8, 918.0 181.8" fill="none" stroke="#88c0d0" stroke-width="2.2" stroke-linecap="round" stroke-linejoin="round"/>
<circle cx="44.0" cy="196.0" r="2.6" fill="#2e3440" stroke="#88c0d0" stroke-width="1.6"/>
<text x="44.0" y="218" text-anchor="middle" fill="#81a1c1" font-family="Segoe UI, Ubuntu, Sans-Serif" font-size="10">2 Aug</text>
<circle cx="74.1" cy="196.0" r="2.6" fill="#2e3440" stroke="#88c0d0" stroke-width="1.6"/>
<circle cx="104.3" cy="196.0" r="2.6" fill="#2e3440" stroke="#88c0d0" stroke-width="1.6"/>
<circle cx="134.4" cy="188.9" r="2.6" fill="#2e3440" stroke="#88c0d0" stroke-width="1.6"/>
<text x="134.4" y="218" text-anchor="middle" fill="#81a1c1" font-family="Segoe UI, Ubuntu, Sans-Serif" font-size="10">5 Aug</text>
<circle cx="164.6" cy="181.8" r="2.6" fill="#2e3440" stroke="#88c0d0" stroke-width="1.6"/>
<circle cx="194.7" cy="146.3" r="2.6" fill="#2e3440" stroke="#88c0d0" stroke-width="1.6"/>
<circle cx="224.8" cy="160.5" r="2.6" fill="#2e3440" stroke="#88c0d0" stroke-width="1.6"/>
<text x="224.8" y="218" text-anchor="middle" fill="#81a1c1" font-family="Segoe UI, Ubuntu, Sans-Serif" font-size="10">8 Aug</text>
<circle cx="255.0" cy="196.0" r="2.6" fill="#2e3440" stroke="#88c0d0" stroke-width="1.6"/>
<circle cx="285.1" cy="188.9" r="2.6" fill="#2e3440" stroke="#88c0d0" stroke-width="1.6"/>
<circle cx="315.2" cy="188.9" r="2.6" fill="#2e3440" stroke="#88c0d0" stroke-width="1.6"/>
<text x="315.2" y="218" text-anchor="middle" fill="#81a1c1" font-family="Segoe UI, Ubuntu, Sans-Serif" font-size="10">11 Aug</text>
<circle cx="345.4" cy="174.7" r="2.6" fill="#2e3440" stroke="#88c0d0" stroke-width="1.6"/>
<circle cx="375.5" cy="196.0" r="2.6" fill="#2e3440" stroke="#88c0d0" stroke-width="1.6"/>
<circle cx="405.7" cy="181.8" r="2.6" fill="#2e3440" stroke="#88c0d0" stroke-width="1.6"/>
<text x="405.7" y="218" text-anchor="middle" fill="#81a1c1" font-family="Segoe UI, Ubuntu, Sans-Serif" font-size="10">14 Aug</text>
<circle cx="435.8" cy="188.9" r="2.6" fill="#2e3440" stroke="#88c0d0" stroke-width="1.6"/>
<circle cx="465.9" cy="181.8" r="2.6" fill="#2e3440" stroke="#88c0d0" stroke-width="1.6"/>
<circle cx="496.1" cy="188.9" r="2.6" fill="#2e3440" stroke="#88c0d0" stroke-width="1.6"/>
<text x="496.1" y="218" text-anchor="middle" fill="#81a1c1" font-family="Segoe UI, Ubuntu, Sans-Serif" font-size="10">17 Aug</text>
<circle cx="526.2" cy="188.9" r="2.6" fill="#2e3440" stroke="#88c0d0" stroke-width="1.6"/>
<circle cx="556.3" cy="160.5" r="2.6" fill="#2e3440" stroke="#88c0d0" stroke-width="1.6"/>
<circle cx="586.5" cy="188.9" r="2.6" fill="#2e3440" stroke="#88c0d0" stroke-width="1.6"/>
<text x="586.5" y="218" text-anchor="middle" fill="#81a1c1" font-family="Segoe UI, Ubuntu, Sans-Serif" font-size="10">20 Aug</text>
<circle cx="616.6" cy="196.0" r="2.6" fill="#2e3440" stroke="#88c0d0" stroke-width="1.6"/>
<circle cx="646.8" cy="188.9" r="2.6" fill="#2e3440" stroke="#88c0d0" stroke-width="1.6"/>
<circle cx="676.9" cy="196.0" r="2.6" fill="#2e3440" stroke="#88c0d0" stroke-width="1.6"/>
<text x="676.9" y="218" text-anchor="middle" fill="#81a1c1" font-family="Segoe UI, Ubuntu, Sans-Serif" font-size="10">23 Aug</text>
<circle cx="707.0" cy="188.9" r="2.6" fill="#2e3440" stroke="#88c0d0" stroke-width="1.6"/>
<circle cx="737.2" cy="196.0" r="2.6" fill="#2e3440" stroke="#88c0d0" stroke-width="1.6"/>
<circle cx="767.3" cy="196.0" r="2.6" fill="#2e3440" stroke="#88c0d0" stroke-width="1.6"/>
<text x="767.3" y="218" text-anchor="middle" fill="#81a1c1" font-family="Segoe UI, Ubuntu, Sans-Serif" font-size="10">26 Aug</text>
<circle cx="797.4" cy="188.9" r="2.6" fill="#2e3440" stroke="#88c0d0" stroke-width="1.6"/>
<circle cx="827.6" cy="188.9" r="2.6" fill="#2e3440" stroke="#88c0d0" stroke-width="1.6"/>
<circle cx="857.7" cy="68.2" r="2.6" fill="#2e3440" stroke="#88c0d0" stroke-width="1.6"/>
<text x="857.7" y="218" text-anchor="middle" fill="#81a1c1" font-family="Segoe UI, Ubuntu, Sans-Serif" font-size="10">29 Aug</text>
<circle cx="887.9" cy="181.8" r="2.6" fill="#2e3440" stroke="#88c0d0" stroke-width="1.6"/>
<circle cx="918.0" cy="181.8" r="2.6" fill="#2e3440" stroke="#88c0d0" stroke-width="1.6"/>
<text x="918.0" y="218" text-anchor="middle" fill="#81a1c1" font-family="Segoe UI, Ubuntu, Sans-Serif" font-size="10">31 Aug</text>
<circle cx="857.7" cy="68.2" r="4" fill="#2e3440" stroke="#88c0d0" stroke-width="2"/>
<text x="857.7" y="58.2" text-anchor="middle" fill="#d8dee9" font-family="Segoe UI, Ubuntu, Sans-Serif" font-size="11" font-weight="600">18</text>
</svg>