<svg width="940" height="230" viewBox="0 0 940 230" fill="none" xmlns="http://www.w3.org/2000/svg" role="img" aria-label="Contribution Activity">
<defs><linearGradient id="fill" x1="0" y1="0" x2="0" y2="1"><stop offset="0%" stop-color="#88c0d0" stop-opacity="0.38"/><stop offset="100%" stop-color="#88c0d0" stop-opacity="0"/></linearGradient></defs>
<rect x="0.5" y="0.5" width="939" height="229" rx="8" fill="#2e3440" stroke="#ffffff" stroke-width="1"/>
<text x="44" y="30" fill="#88c0d0" font-family="Segoe UI, Ubuntu, Sans-Serif" font-size="18" font-weight="600">Contribution Activity</text>
<text x="918" y="30" text-anchor="end" fill="#81a1c1" font-family="Segoe UI, Ubuntu, Sans-Serif" font-size="13">68 contributions from Aug 22 to Sep 20</text>
<line x1="44" y1="196.0" x2="918" y2="196.0" stroke="#434c5e" stroke-width="1" stroke-dasharray="3 4"/>
<text x="36" y="200.0" text-anchor="end" fill="#81a1c1" font-family="Segoe UI, Ubuntu, Sans-Serif" font-size="11">0</text>
<line x1="44" y1="125.0" x2="918" y2="125.0" stroke="#434c5e" stroke-width="1" stroke-dasharray="3 4"/>
<text x="36" y="129.0" text-anchor="end" fill="#81a1c1" font-family="Segoe UI, Ubuntu, Sans-Serif" font-size="11">10</text>
<line x1="44" y1="54.0" x2="918" y2="54.0" stroke="#434c5e" stroke-width="1" stroke-dasharray="3 4"/>
<text x="36" y="58.0" text-anchor="end" fill="#81a1c1" font-family="Segoe UI, Ubuntu, Sans-Serif" font-size="11">20</text>
<path d="M 44.0 188.9 C 49.0 190.1, 64.1 196.0, 74.1 196.0 C 84.2 196.0, 94.2 188.9, 104.3 188.9 C 114.3 188.9, 124.4 194.8, 134.4 196.0 C 144.5 197.2, 154.5 197.2, 164.6 196.0 C 174.6 194.8, 184.6 190.1, 194.7 188.9 C 204.7 187.7, 214.8 209.0, 224.8 188.9 C 234.9 168.8, 244.9 69.4, 255.0 68.2 C 265.0 67.0, 275.1 162.9, 285.1 181.8 C 295.1 200.7, 305.2 179.4, 315.2 181.8 C 325.3 184.2, 335.3 193.6, 345.4 196.0 C 355.4 198.4, 365.5 203.1, 375.5 196.0 C 385.6 188.9, 395.6 157.0, 405.7 153.4 C 415.7 149.8, 425.7 178.2, 435.8 174.7 C 445.8 171.1, 455.9 135.6, 465.9 132.1 C 476.0 128.6, 486.0 143.9, 496.1 153.4 C 506.1 162.9, 516.2 181.8, 526.2 188.9 C 536.3 196.0, 546.3 200.7, 556.3 196.0 C 566.4 191.3, 576.4 165.2, 586.5 160.5 C 596.5 155.8, 606.6 161.7, 616.6 167.6 C 626.7 173.5, 636.7 191.3, 646.8 196.0 C 656.8 200.7, 666.9 199.6, 676.9 196.0 C 686.9 192.4, 697.0 175.9, 707.0 174.7 C 717.1 173.5, 727.1 190.1, 737.2 188.9 C 747.2 187.7, 757.3 166.4, 767.3 167.6 C 777.4 168.8, 787.4 191.3, 797.4 196.0 C 807.5 200.7, 817.5 196.0, 827.6 196.0 C 837.6 196.0, 847.7 196.0, 857.7 196.0 C 867.8 196.0, 877.8 196.0, 887.9 196.0 C 897.9 196.0, 913.0 196.0, 918.0 196.0 L 918.0 196.0 L 44.0 196.0 Z" fill="url(#fill)"/>
<path d="M 44.0 188.9 C 49.0 190.1, 64.1 196.0, 74.1 196.0 C 84.2 196.0, 94.2 188.9, 104.3 188.9 C 114.3 188.9, 124.4 194.8, 134.4 196.0 C 144.5 197.2, 154.5 197.2, 164.6 196.0 C 174.6 194.8, 184.6 190.1, 194.7 188.9 C 204.7 187.7, 214.8 209.0, 224.8 188.9 C 234.9 168.8, 244.9 69.4, 255.0 68.2 C 265.0 67.0, 275.1 162.9, 285.1 181.8 C 295.1 200.7, 305.2 179.4, 315.2 181.8 C 325.3 184.2, 335.3 193.6, 345.4 196.0 C 355.4 198.4, 365.5 203.1, 375.5 196.0 C 385.6 188.9, 395.6 157.0, 405.7 153.4 C 415.7 149.8, 425.7 178.2, 435.8 174.7 C 445.8 171.1, 455.9 135.6, 465.9 132.1 C 476.0 128.6, 486.0 143.9, 496.1 153.4 C 506.1 162.9, 516.2 181.8, 526.2 188.9 C 536.3 196.0, 546.3 200.7, 556.3 196.0 C 566.4 191.3, 576.4 165.2, 586.5 160.5 C 596.5 155.8, 606.6 161.7, 616.6 167.6 C 626.7 173.5, 636.7 191.3, 646.8 196.0 C 656.8 200.7, 666.9 199.6, 676.9 196.0 C 686.9 192.4, 697.0 175.9, 707.0 174.7 C 717.1 173.5, 727.1 190.1, 737.2 188.9 C 747.2 187.7, 757.3 166.4, 767.3 167.6 C 777.4 168.8, 787.4 191.3, 797.4 196.0 C 807.5 200.7, 817.5 196.0, 827.6 196.0 C 837.6 196.0, 847.7 196.0, 857.7 196.0 C 867.8 196.0, 877.8 196.0, 887.9 196.0 C 897.9 196.0, 913.0 196.0, 918.0 196.0" fill="none" stroke="#88c0d0" stroke-width="2.2" stroke-linecap="round" stroke-linejoin="round"/>
<circle cx="44.0" cy="188.9" r="2.6" fill="#2e3440" stroke="#88c0d0" stroke-width="1.6"/>
<text x="44.0" y="218" text-anchor="middle" fill="#81a1c1" font-family="Segoe UI, Ubuntu, Sans-Serif" font-size="10">22 Aug</text>
<circle cx="74.1" cy="196.0" r="2.6" fill="#2e3440" stroke="#88c0d0" stroke-width="1.6"/>
<circle cx="104.3" cy="188.9" r="2.6" fill="#2e3440" stroke="#88c0d0" stroke-width="1.6"/>
<circle cx="134.4" cy="196.0" r="2.6" fill="#2e3440" stroke="#88c0d0" stroke-width="1.6"/>
<text x="134.4" y="218" text-anchor="middle" fill="#81a1c1" font-family="Segoe UI, Ubuntu, Sans-Serif" font-size="10">25 Aug</text>
<circle cx="164.6" cy="196.0" r="2.6" fill="#2e3440" stroke="#88c0d0" stroke-width="1.6"/>
<circle cx="194.7" cy="188.9" r="2.6" fill="#2e3440" stroke="#88c0d0" stroke-width="1.6"/>
<circle cx="224.8" cy="188.9" r="2.6" fill="#2e3440" stroke="#88c0d0" stroke-width="1.6"/>
<text x="224.8" y="218" text-anchor="middle" fill="#81a1c1" font-family="Segoe UI, Ubuntu, Sans-Serif" font-size="10">28 Aug</text>
<circle cx="255.0" cy="68.2" r="2.6" fill="#2e3440" stroke="#88c0d0" stroke-width="1.6"/>
<circle cx="285.1" cy="181.8" r="2.6" fill="#2e3440" stroke="#88c0d0" stroke-width="1.6"/>
<circle cx="315.2" cy="181.8" r="2.6" fill="#2e3440" stroke="#88c0d0" stroke-width="1.6"/>
<text x="315.2" y="218" text-anchor="middle" fill="#81a1c1" font-family="Segoe UI, Ubuntu, Sans-Serif" font-size="10">31 Aug</text>
<circle cx="345.4" cy="196.0" r="2.6" fill="#2e3440" stroke="#88c0d0" stroke-width="1.6"/>
<circle cx="375.5" cy="196.0" r="2.6" fill="#2e3440" stroke="#88c0d0" stroke-width="1.6"/>
<circle cx="405.7" cy="153.4" r="2.6" fill="#2e3440" stroke="#88c0d0" stroke-width="1.6"/>
<text x="405.7" y="218" text-anchor="middle" fill="#81a1c1" font-family="Segoe UI, Ubuntu, Sans-Serif" font-size="10">3 Sep</text>
<circle cx="435.8" cy="174.7" r="2.6" fill="#2e3440" stroke="#88c0d0" stroke-width="1.6"/>
<circle cx="465.9" cy="132.1" r="2.6" fill="#2e3440" stroke="#88c0d0" stroke-width="1.6"/>
<circle cx="496.1" cy="153.4" r="2.6" fill="#2e3440" stroke="#88c0d0" stroke-width="1.6"/>
<text x="496.1" y="218" text-anchor="middle" fill="#81a1c1" font-family="Segoe UI, Ubuntu, Sans-Serif" font-size="10">6 Sep</text>
<circle cx="526.2" cy="188.9" r="2.6" fill="#2e3440" stroke="#88c0d0" stroke-width="1.6"/>
<circle cx="556.3" cy="196.0" r="2.6" fill="#2e3440" stroke="#88c0d0" stroke-width="1.6"/>
<circle cx="586.5" cy="160.5" r="2.6" fill="#2e3440" stroke="#88c0d0" stroke-width="1.6"/>
<text x="586.5" y="218" text-anchor="middle" fill="#81a1c1" font-family="Segoe UI, Ubuntu, Sans-Serif" font-size="10">9 Sep</text>
<circle cx="616.6" cy="167.6" r="2.6" fill="#2e3440" stroke="#88c0d0" stroke-width="1.6"/>
<circle cx="646.8" cy="196.0" r="2.6" fill="#2e3440" stroke="#88c0d0" stroke-width="1.6"/>
<circle cx="676.9" cy="196.0" r="2.6" fill="#2e3440" stroke="#88c0d0" stroke-width="1.6"/>
<text x="676.9" y="218" text-anchor="middle" fill="#81a1c1" font-family="Segoe UI, Ubuntu, Sans-Serif" font-size="10">12 Sep</text>
<circle cx="707.0" cy="174.7" r="2.6" fill="#2e3440" stroke="#88c0d0" stroke-width="1.6"/>
<circle cx="737.2" cy="188.9" r="2.6" fill="#2e3440" stroke="#88c0d0" stroke-width="1.6"/>
<circle cx="767.3" cy="167.6" r="2.6" fill="#2e3440" stroke="#88c0d0" stroke-width="1.6"/>
<text x="767.3" y="218" text-anchor="middle" fill="#81a1c1" font-family="Segoe UI, Ubuntu, Sans-Serif" font-size="10">15 Sep</text>
<circle cx="797.4" cy="196.0" r="2.6" fill="#2e3440" stroke="#88c0d0" stroke-width="1.6"/>
<circle cx="827.6" cy="196.0" r="2.6" fill="#2e3440" stroke="#88c0d0" stroke-width="1.6"/>
<circle cx="857.7" cy="196.0" r="2.6" fill="#2e3440" stroke="#88c0d0" stroke-width="1.6"/>
<text x="857.7" y="218" text-anchor="middle" fill="#81a1c1" font-family="Segoe UI, Ubuntu, Sans-Serif" font-size="10">18 Sep</text>
<circle cx="887.9" cy="196.0" r="2.6" fill="#2e3440" stroke="#88c0d0" stroke-width="1.6"/>
<circle cx="918.0" cy="196.0" r="2.6" fill="#2e3440" stroke="#88c0d0" stroke-width="1.6"/>
<text x="918.0" y="218" text-anchor="middle" fill="#81a1c1" font-family="Segoe UI, Ubuntu, Sans-Serif" font-size="10">20 Sep</text>
<circle cx="255.0" cy="68.2" r="4" fill="#2e3440" stroke="#88c0d0" stroke-width="2"/>
<text x="255.0" y="58.2" text-anchor="middle" fill="#d8dee9" font-family="Segoe UI, Ubuntu, Sans-Serif" font-size="11" font-weight="600">18</text>
</svg>